HIERARCHY
ROOT Hip
{
  OFFSET 0.0 0.0 0.0
  CHANNELS 6 Xposition Yposition Zposition Xrotation Yrotation Zrotation
  JOINT LowerSpine
  {
    OFFSET 0.0 0.061367 -0.03653
    CHANNELS 3 Xrotation Yrotation Zrotation
    JOINT MiddleSpine
    {
      OFFSET 0.0 0.056002 0.002633
      CHANNELS 3 Xrotation Yrotation Zrotation
      JOINT Chest
      {
        OFFSET 0.0 0.069296 -0.013882
        CHANNELS 3 Xrotation Yrotation Zrotation
        JOINT Neck
        {
          OFFSET 0.0 0.156156 -0.002923
          CHANNELS 3 Xrotation Yrotation Zrotation
          JOINT Head
          {
            OFFSET 0.0 0.088183 0.023986
            CHANNELS 3 Xrotation Yrotation Zrotation
            End Site
            {
              OFFSET 1e-06 0.123215 0.003678
            }
          }
        }
        JOINT LClavicle
        {
          OFFSET 0.014189 0.150698 0.046467
          CHANNELS 3 Xrotation Yrotation Zrotation
          JOINT LShoulder
          {
            OFFSET 0.082893 0.021616 -0.034976
            CHANNELS 3 Xrotation Yrotation Zrotation
            JOINT LForearm
            {
              OFFSET 0.195645 -0.000695 -0.001695
              CHANNELS 3 Xrotation Yrotation Zrotation
              JOINT LHand
              {
                OFFSET 0.163209 0.000474 -0.000977
                CHANNELS 3 Xrotation Yrotation Zrotation
                End Site
                {
                  OFFSET 0.0 0.006864 0.0
                }
              }
            }
          }
        }
        JOINT RClavicle
        {
          OFFSET -0.014189 0.150698 0.046467
          CHANNELS 3 Xrotation Yrotation Zrotation
          JOINT RShoulder
          {
            OFFSET -0.082908 0.021619 -0.034982
            CHANNELS 3 Xrotation Yrotation Zrotation
            JOINT RForearm
            {
              OFFSET -0.195645 -0.000695 -0.001695
              CHANNELS 3 Xrotation Yrotation Zrotation
              JOINT RHand
              {
                OFFSET -0.163209 0.000474 -0.000977
                CHANNELS 3 Xrotation Yrotation Zrotation
                End Site
                {
                  OFFSET 0.0 0.006864 0.0
                }
              }
            }
          }
        }
      }
    }
  }
  JOINT RThigh
  {
    OFFSET -0.072558 0.02774 -0.005953
    CHANNELS 3 Xrotation Yrotation Zrotation
    JOINT RShin
    {
      OFFSET -0.005253 -0.285537 0.0
      CHANNELS 3 Xrotation Yrotation Zrotation
      JOINT RFoot
      {
        OFFSET 0.0 -0.28038 0.0
        CHANNELS 3 Xrotation Yrotation Zrotation
        JOINT RToe
        {
          OFFSET 0.0 -0.030816 0.064441
          CHANNELS 3 Xrotation Yrotation Zrotation
          End Site
          {
            OFFSET 0.0 0.0 0.043231
          }
        }
      }
    }
  }
  JOINT LThigh
  {
    OFFSET 0.072557 0.027741 -0.005953
    CHANNELS 3 Xrotation Yrotation Zrotation
    JOINT LShin
    {
      OFFSET 0.005253 -0.285539 0.0
      CHANNELS 3 Xrotation Yrotation Zrotation
      JOINT LFoot
      {
        OFFSET 0.0 -0.28038 0.0
        CHANNELS 3 Xrotation Yrotation Zrotation
        JOINT LToe
        {
          OFFSET 0.0 -0.030816 0.064441
          CHANNELS 3 Xrotation Yrotation Zrotation
          End Site
          {
            OFFSET 0.0 0.0 0.043231
          }
        }
      }
    }
  }
}
MOTION
Frames: 16
Frame Time: 0.03333333333333333
-0.082153 0.374082 -0.230117 35.314869 7.69202 -0.864004 -0.757868 -0.224398 0.290424 0.777689 0.35911 -0.002179 -0.796076 0.525194 -1.968291 -1.727365 -0.231465 -0.20082 0.009727 0.073798 -0.017495 0.193448 -0.732009 -8.124416 26.868856 -20.83247 -10.913391 21.46114 -61.719112 0.158952 0.017705 0.058167 -0.021371 -0.501789 0.070563 10.231005 22.698408 36.587795 32.643711 6.715975 48.917694 2.034125 0.13789 -0.136935 -0.001664 -106.414284 1.574276 -4.826817 83.589851 0.374808 2.898182 -7.092999 -0.713273 -0.667132 0.004076 0.106397 0.012305 -101.330734 -10.946973 19.269756 80.637245 4.755537 -17.080273 -0.465342 -0.619095 0.066283 -0.03322 -0.028896 0.005483 
-0.081191 0.373532 -0.231366 35.059025 7.670705 -0.757881 -0.721945 -0.217335 0.29218 0.759541 0.378269 0.002278 -0.942353 0.575985 -1.949213 -1.702822 -0.223439 -0.198463 0.011285 0.074949 -0.017296 0.177911 -0.752308 -8.05961 26.953749 -20.673481 -11.362348 21.56951 -61.779068 0.263126 0.01879 0.059764 -0.022029 -0.518897 0.068485 10.16851 22.562452 36.778954 32.748474 6.723039 48.473724 1.943324 0.140767 -0.141866 -0.001897 -106.199883 1.654922 -4.921771 83.624352 0.383088 2.942722 -7.080239 -0.720603 -0.673378 0.005587 0.111065 0.013887 -101.126999 -10.800936 19.206408 80.578659 4.744586 -16.996529 -0.48643 -0.630727 0.056162 -0.030688 -0.02923 0.005962 
-0.080153 0.372661 -0.232789 34.806171 7.644929 -0.697199 -0.695554 -0.208629 0.295785 0.754034 0.402338 0.000213 -1.004544 0.658161 -1.94003 -1.680724 -0.21519 -0.1992 0.01281 0.074074 -0.017252 0.165321 -0.772797 -8.03353 27.053051 -20.476542 -11.78558 21.622139 -61.777157 0.361974 0.020083 0.061714 -0.022851 -0.530822 0.06259 10.138193 22.398436 36.854343 32.866276 6.635118 48.123234 1.882902 0.14236 -0.145543 -0.002293 -105.969444 1.739099 -4.985704 83.747795 0.385053 2.975626 -7.08597 -0.736101 -0.685538 0.006221 0.114373 0.015852 -100.942886 -10.684339 19.159653 80.61898 4.704333 -16.93141 -0.506135 -0.638304 0.050541 -0.028229 -0.029886 0.006575 
-0.079355 0.371762 -0.23416 34.628868 7.666321 -0.710759 -0.679349 -0.198945 0.300438 0.761283 0.427582 -0.010892 -0.978702 0.759685 -1.947844 -1.662038 -0.208174 -0.202273 0.014027 0.072134 -0.017297 0.156301 -0.788509 -8.046969 27.11414 -20.285999 -12.115496 21.600689 -61.710754 0.438337 0.021225 0.063453 -0.023407 -0.535082 0.049845 10.139431 22.203136 36.840057 32.978939 6.45998 47.902771 1.869197 0.142937 -0.147342 -0.002684 -105.75267 1.820963 -5.018502 83.917397 0.384435 2.994953 -7.105525 -0.75766 -0.700898 0.006047 0.115452 0.01779 -100.813683 -10.592669 19.112104 80.735924 4.652269 -16.897032 -0.521544 -0.639293 0.050026 -0.026585 -0.029971 0.007588 
-0.078885 0.371194 -0.235377 34.607044 7.756916 -0.806491 -0.67287 -0.189092 0.304974 0.777195 0.450121 -0.031155 -0.87733 0.863684 -1.974007 -1.646192 -0.202677 -0.20613 0.014674 0.069732 -0.017327 0.148143 -0.798076 -8.091554 27.099401 -20.154959 -12.305426 21.497189 -61.586082 0.474401 0.021869 0.064415 -0.023317 -0.532562 0.03275 10.169682 21.97603 36.757565 33.070015 6.221935 47.822906 1.906162 0.142645 -0.146827 -0.002908 -105.588104 1.902395 -5.026243 84.06572 0.385169 3.002541 -7.141432 -0.782426 -0.716575 0.005625 0.114223 0.019451 -100.781464 -10.513561 19.051929 80.88195 4.610979 -16.897806 -0.538942 -0.630548 0.05403 -0.026208 -0.02898 0.009055 
-0.078791 0.371446 -0.236458 34.828384 7.931366 -0.979618 -0.673684 -0.17984 0.308543 0.795484 0.467268 -0.059129 -0.734152 0.955375 -2.023783 -1.630364 -0.197911 -0.208735 0.014548 0.067422 -0.017207 0.136881 -0.80206 -8.144652 26.986147 -20.148241 -12.314935 21.335808 -61.429909 0.460969 0.021744 0.064219 -0.022419 -0.5262 0.015161 10.216628 21.69829 36.654556 33.130772 5.967182 47.845245 1.986686 0.141373 -0.143916 -0.002849 -105.5028 1.985179 -5.016827 84.089447 0.392991 3.00028 -7.19381 -0.805597 -0.729431 0.00556 0.110917 0.020704 -100.868958 -10.425695 18.967995 80.958282 4.610082 -16.938898 -0.566232 -0.61054 0.061123 -0.027258 -0.026906 0.010811 
-0.079152 0.373166 -0.237059 35.390156 8.20253 -1.215623 -0.677913 -0.169578 0.314064 0.810897 0.488012 -0.093862 -0.587616 1.041933 -2.087455 -1.610343 -0.19227 -0.209962 0.014145 0.06479 -0.016873 0.121303 -0.806385 -8.18089 26.806524 -20.269125 -12.149925 21.243357 -61.253895 0.426721 0.021112 0.063277 -0.021035 -0.517978 -0.0125 10.264715 21.398382 36.592819 33.096626 5.76212 47.89706 2.09691 0.139664 -0.139897 -0.002726 -105.490486 2.082174 -5.003243 83.915962 0.405027 2.994921 -7.253412 -0.826838 -0.739423 0.006225 0.106888 0.021999 -101.050522 -10.28624 18.851522 80.845718 4.666906 -17.01408 -0.599547 -0.584661 0.070211 -0.029437 -0.024278 0.012754 
-0.080245 0.377103 -0.237043 36.407288 8.619559 -1.507272 -0.678639 -0.156588 0.321145 0.81772 0.515266 -0.136685 -0.483006 1.116136 -2.172087 -1.580664 -0.184184 -0.207315 0.013552 0.062695 -0.016077 0.095302 -0.814304 -8.162389 26.543102 -20.582418 -11.801341 21.305553 -61.070164 0.37229 0.01987 0.061377 -0.019046 -0.512343 -0.051401 10.293594 21.051992 36.691856 32.92485 5.66335 47.858959 2.222102 0.138883 -0.13577 -0.002443 -105.551079 2.216987 -5.021878 83.437836 0.42182 3.000236 -7.314989 -0.841366 -0.743465 0.008808 0.103497 0.023372 -101.314339 -10.046673 18.69383 80.395409 4.817635 -17.122604 -0.646762 -0.554984 0.078089 -0.032856 -0.020938 0.015001 
-0.082537 0.384044 -0.236358 37.979366 9.255947 -1.859984 -0.668563 -0.13918 0.328253 0.814301 0.547369 -0.192003 -0.472125 1.162805 -2.308648 -1.537045 -0.172518 -0.197634 0.012797 0.062723 -0.014617 0.055264 -0.825137 -8.048244 26.1479 -21.184853 -11.217047 21.598082 -60.887905 0.304506 0.017808 0.058297 -0.016234 -0.511508 -0.104153 10.273737 20.607445 37.110214 32.589905 5.728651 47.611721 2.346087 0.140159 -0.132762 -0.001774 -105.630913 2.392614 -5.114606 82.487251 0.439802 3.030576 -7.359665 -0.842048 -0.737593 0.014155 0.10174 0.02473 -101.598938 -9.660835 18.474672 79.398384 5.105398 -17.267637 -0.711545 -0.525201 0.08215 -0.037797 -0.016134 0.017945 
-0.086395 0.394342 -0.234922 40.120033 10.175936 -2.286136 -0.636942 -0.115552 0.33354 0.804183 0.587201 -0.265726 -0.597788 1.186492 -2.526859 -1.475945 -0.15635 -0.178339 0.011901 0.067726 -0.012209 -0.004748 -0.840803 -7.806104 25.574379 -22.12398 -10.434393 22.150545 -60.722256 0.221485 0.014946 0.053803 -0.012565 -0.51828 -0.171227 10.1802 19.981617 37.994377 32.1049 5.969162 47.012478 2.451447 0.146311 -0.132333 -0.000429 -105.672943 2.629104 -5.321884 80.971146 0.458168 3.107053 -7.379505 -0.823117 -0.718747 0.023739 0.103239 0.025809 -101.823021 -9.093866 18.189344 77.734558 5.559414 -17.45084 -0.7959 -0.499919 0.077246 -0.044435 -0.009369 0.021937 
-0.09141 0.408094 -0.233083 42.828217 11.303559 -2.80272 -0.580961 -0.0925 0.341875 0.773949 0.63823 -0.354383 -0.858194 1.166336 -2.831778 -1.397344 -0.136157 -0.153767 0.011101 0.072138 -0.008273 -0.082752 -0.86573 -7.444927 24.787304 -23.434137 -9.509533 22.928749 -60.63224 0.15038 0.012518 0.050554 -0.010406 -0.538802 -0.24992 9.998788 19.129364 39.374325 31.554003 6.405156 46.181568 2.486359 0.154299 -0.135548 0.001038 -105.664215 2.944977 -5.657247 78.747169 0.474809 3.213162 -7.351546 -0.767469 -0.683105 0.03588 0.112007 0.027919 -101.89138 -8.250937 17.85634 75.261078 6.204 -17.672817 -0.924979 -0.488461 0.058723 -0.050968 -0.004334 0.025852 
-0.095531 0.422534 -0.231496 45.166576 12.296166 -3.279401 -0.482773 -0.077718 0.359518 0.730854 0.711936 -0.432412 -1.199479 1.170086 -3.149306 -1.314965 -0.113325 -0.131188 0.011328 0.068841 -0.003912 -0.163571 -0.9288 -7.046253 23.77146 -24.768867 -9.035489 23.556551 -60.553925 0.192732 0.014237 0.055236 -0.014938 -0.603041 -0.340807 9.739454 18.247452 40.905285 31.146114 6.846872 45.387997 2.414762 0.159191 -0.144783 0.001616 -105.343124 3.274277 -6.01074 76.189865 0.476024 3.303706 -7.217494 -0.661046 -0.634659 0.051499 0.135505 0.031429 -101.404099 -7.108121 17.538507 72.408813 6.901887 -17.883753 -1.08363 -0.517042 0.019934 -0.05129 -0.00835 0.026575 
-0.097456 0.434991 -0.232603 46.413586 12.77809 -3.499544 -0.332421 -0.075368 0.36387 0.635247 0.78861 -0.471497 -1.635192 1.164791 -3.435798 -1.208872 -0.085839 -0.111395 0.013369 0.06087 -0.003171 -0.217358 -1.002247 -6.584268 22.673115 -25.769558 -9.114255 23.856443 -60.553623 0.337626 0.019645 0.066213 -0.024675 -0.684622 -0.452207 9.398884 17.386116 42.574997 30.870874 7.478537 44.457874 2.192063 0.16437 -0.161403 0.001458 -104.6399 3.448047 -6.169387 73.382416 0.543723 3.352534 -6.949565 -0.553729 -0.577549 0.060451 0.171912 0.03692 -100.280968 -5.794165 17.356705 69.367027 7.672321 -18.037882 -1.189986 -0.555444 -0.023063 -0.048159 -0.01729 0.023813 
-0.09694 0.444652 -0.236602 45.978794 12.826282 -3.334751 -0.111678 -0.098707 0.342783 0.552998 0.864086 -0.451516 -2.117138 1.183729 -3.614645 -1.091519 -0.055946 -0.09055 0.01778 0.057096 -0.004434 -0.234083 -1.08704 -6.05104 21.676409 -26.641735 -9.674057 23.70155 -60.873619 0.52647 0.027456 0.080249 -0.038852 -0.775821 -0.548179 8.974425 16.535311 44.482632 30.764273 7.688129 43.585747 1.975369 0.179448 -0.18862 0.002166 -102.968437 3.349616 -6.400374 70.249817 0.551032 3.404652 -6.429973 -0.460329 -0.508857 0.071718 0.223215 0.043257 -97.797729 -4.318929 17.378262 66.109047 8.42135 -18.125713 -1.245105 -0.603575 -0.073911 -0.043362 -0.027985 0.020562 
-0.093723 0.453677 -0.24298 44.257896 12.328856 -2.970087 0.193095 -0.131434 0.342923 0.489456 0.923865 -0.389349 -2.574956 1.443034 -3.812445 -0.915743 -0.012973 -0.069177 0.02403 0.048475 -0.005475 -0.259063 -1.214915 -5.492211 20.620899 -27.555737 -10.891057 23.130066 -61.031609 0.867126 0.037085 0.096134 -0.053857 -0.925861 -0.59342 8.480673 15.437119 46.773117 30.963045 7.910546 42.105488 1.734895 0.185391 -0.214759 0.002113 -100.034851 3.297187 -6.48346 66.054588 0.625195 3.445799 -5.693358 -0.361864 -0.433213 0.076738 0.278966 0.053324 -93.827271 -2.208745 17.537064 61.863007 9.290524 -18.17767 -1.33519 -0.637223 -0.112987 -0.034922 -0.040651 0.016116 
-0.088797 0.462474 -0.247965 41.459606 11.517511 -2.555014 0.567999 -0.157177 0.358271 0.399916 0.966394 -0.303555 -3.164922 1.761317 -4.001843 -0.681983 0.045457 -0.035165 0.029788 0.027355 -0.006562 -0.343569 -1.43577 -4.890772 19.571732 -28.144787 -12.89714 22.171267 -61.104267 1.463769 0.045533 0.110311 -0.065914 -1.137249 -0.559477 7.955562 14.051099 48.845253 31.592121 8.296216 40.185165 1.434121 0.171274 -0.226695 0.001916 -95.29187 3.286133 -6.358313 60.823185 0.803818 3.417496 -4.920255 -0.24657 -0.368145 0.073987 0.325488 0.063613 -87.906334 0.552352 17.915426 56.763634 10.456872 -18.253414 -1.473314 -0.652387 -0.130975 -0.0228 -0.054115 0.010948 
